<mxfile host="app.diagrams.net" agent="Mozilla/5.0 (Macintosh; Intel Mac OS X 10_15_7) AppleWebKit/537.36 (KHTML, like Gecko) Chrome/133.0.0.0 Safari/537.36" version="26.0.14">
  <diagram name="ページ1" id="gDaBkIweew_cao8GBxam">
    <mxGraphModel dx="940" dy="625" grid="0" gridSize="10" guides="1" tooltips="1" connect="1" arrows="1" fold="1" page="0" pageScale="1" pageWidth="827" pageHeight="1169" math="0" shadow="0">
      <root>
        <mxCell id="0" />
        <mxCell id="1" parent="0" />
        <mxCell id="c8M2ZQJ2KoNG50TO-sty-10" value="" style="shape=flexArrow;endArrow=classic;startArrow=classic;html=1;rounded=0;fillColor=#008a00;strokeColor=#005700;entryX=0.96;entryY=1.033;entryDx=0;entryDy=0;entryPerimeter=0;exitX=0.414;exitY=-0.026;exitDx=0;exitDy=0;exitPerimeter=0;strokeWidth=0;" edge="1" parent="1" source="c8M2ZQJ2KoNG50TO-sty-13" target="c8M2ZQJ2KoNG50TO-sty-11">
          <mxGeometry width="100" height="100" relative="1" as="geometry">
            <mxPoint x="440" y="320" as="sourcePoint" />
            <mxPoint x="360" y="240" as="targetPoint" />
          </mxGeometry>
        </mxCell>
        <mxCell id="c8M2ZQJ2KoNG50TO-sty-11" value="" style="verticalLabelPosition=bottom;verticalAlign=top;html=1;shadow=0;dashed=0;strokeWidth=0;shape=mxgraph.android.phone2;strokeColor=#001DBC;fillColor=#0050ef;fontColor=#ffffff;" vertex="1" parent="1">
          <mxGeometry x="330" y="170" width="40" height="70" as="geometry" />
        </mxCell>
        <mxCell id="c8M2ZQJ2KoNG50TO-sty-13" value="" style="shape=mxgraph.signs.transportation.car_3;html=1;pointerEvents=1;fillColor=#0050ef;strokeColor=#001DBC;verticalLabelPosition=bottom;verticalAlign=top;align=center;fontColor=#ffffff;strokeWidth=0;" vertex="1" parent="1">
          <mxGeometry x="390" y="300" width="99" height="38" as="geometry" />
        </mxCell>
        <mxCell id="c8M2ZQJ2KoNG50TO-sty-14" value="" style="verticalLabelPosition=bottom;verticalAlign=top;html=1;shadow=0;dashed=0;strokeWidth=0;shape=mxgraph.android.phone2;strokeColor=#001DBC;fillColor=#0050ef;fontColor=#ffffff;" vertex="1" parent="1">
          <mxGeometry x="440" y="80" width="40" height="70" as="geometry" />
        </mxCell>
        <mxCell id="c8M2ZQJ2KoNG50TO-sty-15" value="" style="shape=flexArrow;endArrow=classic;startArrow=classic;html=1;rounded=0;fillColor=#008a00;strokeColor=#005700;entryX=1.075;entryY=0.3;entryDx=0;entryDy=0;entryPerimeter=0;exitX=0;exitY=0.714;exitDx=0;exitDy=0;exitPerimeter=0;strokeWidth=0;" edge="1" parent="1" source="c8M2ZQJ2KoNG50TO-sty-14" target="c8M2ZQJ2KoNG50TO-sty-11">
          <mxGeometry width="100" height="100" relative="1" as="geometry">
            <mxPoint x="441" y="309" as="sourcePoint" />
            <mxPoint x="378" y="252" as="targetPoint" />
          </mxGeometry>
        </mxCell>
        <mxCell id="c8M2ZQJ2KoNG50TO-sty-16" value="" style="shape=mxgraph.signs.transportation.car_3;html=1;pointerEvents=1;fillColor=#0050ef;strokeColor=#001DBC;verticalLabelPosition=bottom;verticalAlign=top;align=center;fontColor=#ffffff;strokeWidth=0;" vertex="1" parent="1">
          <mxGeometry x="560" y="360" width="99" height="38" as="geometry" />
        </mxCell>
        <mxCell id="c8M2ZQJ2KoNG50TO-sty-17" value="" style="shape=flexArrow;endArrow=classic;startArrow=classic;html=1;rounded=0;fillColor=#008a00;strokeColor=#005700;entryX=1.03;entryY=1.079;entryDx=0;entryDy=0;entryPerimeter=0;exitX=0.101;exitY=0.263;exitDx=0;exitDy=0;exitPerimeter=0;strokeWidth=0;" edge="1" parent="1" source="c8M2ZQJ2KoNG50TO-sty-16" target="c8M2ZQJ2KoNG50TO-sty-13">
          <mxGeometry width="100" height="100" relative="1" as="geometry">
            <mxPoint x="533" y="395" as="sourcePoint" />
            <mxPoint x="470" y="338" as="targetPoint" />
          </mxGeometry>
        </mxCell>
        <mxCell id="c8M2ZQJ2KoNG50TO-sty-19" value="" style="shape=flexArrow;endArrow=classic;startArrow=classic;html=1;rounded=0;fillColor=#008a00;strokeColor=#005700;entryX=1.075;entryY=0.486;entryDx=0;entryDy=0;entryPerimeter=0;exitX=0;exitY=0.5;exitDx=0;exitDy=0;exitPerimeter=0;strokeWidth=0;" edge="1" parent="1" source="c8M2ZQJ2KoNG50TO-sty-23" target="c8M2ZQJ2KoNG50TO-sty-14">
          <mxGeometry width="100" height="100" relative="1" as="geometry">
            <mxPoint x="596.02" y="101.99000000000001" as="sourcePoint" />
            <mxPoint x="520" y="111" as="targetPoint" />
          </mxGeometry>
        </mxCell>
        <mxCell id="c8M2ZQJ2KoNG50TO-sty-20" value="" style="verticalLabelPosition=bottom;verticalAlign=top;html=1;shadow=0;dashed=0;strokeWidth=0;shape=mxgraph.android.phone2;strokeColor=#001DBC;fillColor=#0050ef;fontColor=#ffffff;" vertex="1" parent="1">
          <mxGeometry x="550" y="240" width="40" height="70" as="geometry" />
        </mxCell>
        <mxCell id="c8M2ZQJ2KoNG50TO-sty-21" value="" style="shape=flexArrow;endArrow=classic;startArrow=classic;html=1;rounded=0;fillColor=#008a00;strokeColor=#005700;entryX=0.949;entryY=0.105;entryDx=0;entryDy=0;entryPerimeter=0;exitX=-0.05;exitY=0.543;exitDx=0;exitDy=0;exitPerimeter=0;strokeWidth=0;" edge="1" parent="1" source="c8M2ZQJ2KoNG50TO-sty-20" target="c8M2ZQJ2KoNG50TO-sty-13">
          <mxGeometry width="100" height="100" relative="1" as="geometry">
            <mxPoint x="441" y="309" as="sourcePoint" />
            <mxPoint x="378" y="252" as="targetPoint" />
          </mxGeometry>
        </mxCell>
        <mxCell id="c8M2ZQJ2KoNG50TO-sty-22" value="" style="shape=flexArrow;endArrow=classic;startArrow=classic;html=1;rounded=0;fillColor=#008a00;strokeColor=#005700;entryX=0.625;entryY=1.057;entryDx=0;entryDy=0;entryPerimeter=0;exitX=0.404;exitY=-0.105;exitDx=0;exitDy=0;exitPerimeter=0;strokeWidth=0;" edge="1" parent="1" source="c8M2ZQJ2KoNG50TO-sty-16" target="c8M2ZQJ2KoNG50TO-sty-20">
          <mxGeometry width="100" height="100" relative="1" as="geometry">
            <mxPoint x="451" y="319" as="sourcePoint" />
            <mxPoint x="388" y="262" as="targetPoint" />
          </mxGeometry>
        </mxCell>
        <mxCell id="c8M2ZQJ2KoNG50TO-sty-23" value="" style="shape=mxgraph.signs.transportation.car_3;html=1;pointerEvents=1;fillColor=#0050ef;strokeColor=#001DBC;verticalLabelPosition=bottom;verticalAlign=top;align=center;fontColor=#ffffff;strokeWidth=0;" vertex="1" parent="1">
          <mxGeometry x="590" y="80" width="99" height="38" as="geometry" />
        </mxCell>
      </root>
    </mxGraphModel>
  </diagram>
</mxfile>
